<?xml version="1.0" encoding="utf-8"?>
<!-- Generator: Adobe Illustrator 16.0.0, SVG Export Plug-In . SVG Version: 6.00 Build 0)  -->
<!DOCTYPE svg PUBLIC "-//W3C//DTD SVG 1.1//EN" "http://www.w3.org/Graphics/SVG/1.1/DTD/svg11.dtd">
<svg version="1.1" id="Layer_1" xmlns="http://www.w3.org/2000/svg" xmlns:xlink="http://www.w3.org/1999/xlink" x="0px" y="0px"
	 width="820px" height="204.916px" viewBox="-372.5 175.584 820 204.916" enable-background="new -372.5 175.584 820 204.916"
	 xml:space="preserve">
<g opacity="0.4">
	<path fill-rule="evenodd" clip-rule="evenodd" fill="#FFFFFF" stroke="#FFFFFF" d="M20.594,302.347
		c-2.145-4.252-4.534-8.247-9.743-9.281l-0.004-0.005c-3.667-3.525-7.861-2.057-11.984-1.269c-1.249,0.235-2.507,0.443-3.503,1.34
		c-1.527,0.102-2.89,0.465-3.432,2.144c-4.532,5.024-8.646,10.214-8.059,17.609c0.308,3.878,2.147,7.152,3.792,10.521
		c0.895,3.332,3.296,5.33,6.308,6.461c6.086,2.286,12.39,2.058,18.176-0.531c10.853-4.856,13.082-14.815,9.013-25.966
		C20.971,303.027,20.783,302.687,20.594,302.347z"/>
	<path fill-rule="evenodd" clip-rule="evenodd" fill="#FFFFFF" d="M91.108,301.422c-0.793-4.887-2.576-6.592-7.989-7.637
		c0,0.002-0.01-0.006-0.01-0.006c-0.641-1.772-1.895-2.018-3.495-1.403c-4.481-1.5-8.994-1.786-13.374,0.195
		c-4.313,1.95-8.575,4.083-9.438,9.514c-1.638,0.617-1.811,2.05-1.84,3.481c-0.053,2.478-0.444,5.052,0.068,7.42
		c1.448,6.694,3.847,13.525,10.733,15.94c6.751,2.367,13.956,2.764,20.392-2.438C93.775,320.332,96.227,309.088,91.108,301.422z"/>
	<path opacity="0.9" fill-rule="evenodd" clip-rule="evenodd" fill="#2F2F2F" d="M118.586,368.719
		c-0.752-16.629-2.063-35.195-6.16-51.657c2.287,0.304,1.342,2.85,3.131,2.908c0.361,2.25,0.719,4.499,1.08,6.749
		c-0.105,1.099-0.498,2.245,0.529,3.152c0.121,0.785,0.244,1.57,0.365,2.354c-0.379,0.937-0.563,1.847,0.35,2.608
		c0.098,0.321,0.197,0.643,0.295,0.964c-0.324,0.937-0.457,1.843,0.424,2.581c0.086,0.325,0.172,0.648,0.26,0.974
		c-0.096,1.285-0.328,2.576-0.26,3.852c0.43,7.841,0.928,17.676,1.402,25.515C119.529,368.719,119.059,368.719,118.586,368.719z"/>
	<path opacity="0.4" fill-rule="evenodd" clip-rule="evenodd" fill="#282828" d="M120.002,368.719
		c-0.475-7.839-0.973-17.674-1.402-25.515c-0.068-1.275,0.164-2.566,0.26-3.852c0.504,8.266,4.152,15.99,4.178,24.343
		c0.004,1.019-0.316,4.128,0.508,5.023C122.363,368.719,121.184,368.719,120.002,368.719z"/>
	<path opacity="0.5" fill-rule="evenodd" clip-rule="evenodd" fill="#282828" d="M42.059,366.719c4.487-1.159,8.976-1.158,13.462,0
		C51.035,366.719,46.546,366.719,42.059,366.719z"/>
	<path opacity="0.9" fill-rule="evenodd" clip-rule="evenodd" fill="#2F2F2F" d="M59.057,268.273
		c0.064,0.878,1.832,2.515-0.971,2.101c-3.576-0.528-7.148-1.122-10.743-1.484c-9.822-0.991-19.583-3.626-29.563-1.037
		c-1.241,0.323-2.724-0.07-4.056,0.377c-0.482-0.671-0.965-1.343-1.448-2.014c2.262,1.008,4.232-0.693,6.386-0.69
		c0.208,0.338,0.384,0.936,0.629,0.965c0.734,0.087,0.733-0.58,0.801-1.104c3.777-0.052,7.529-0.869,11.326-0.387
		c5.63,0.968,11.341,0.775,17.011,1.183c3.04,0.964,6.144,1.594,9.337,1.736C58.195,268.037,58.626,268.154,59.057,268.273z"/>
	<path opacity="0.9" fill-rule="evenodd" clip-rule="evenodd" fill="#282828" d="M-12.148,246.022
		c1.717,1.099,1.764,2.438,0.893,4.195c-3.099,6.257-4.455,12.956-4.794,19.893c-0.055,1.125,0.166,2.83-1.414,2.693
		c-1.957-0.172-1.326-1.798-0.859-2.995c1.083-2.783-0.902-4.992-1.328-7.488c1.832-4.172,2.239-8.86,4.644-12.818
		C-14.223,248.212-13.511,246.845-12.148,246.022z M-17.738,262.769c0.035-0.103,0.094-0.206,0.092-0.308
		c0-0.034-0.159-0.064-0.245-0.097c-0.035,0.103-0.095,0.206-0.092,0.308C-17.983,262.706-17.825,262.736-17.738,262.769z"/>
	<path opacity="0.5" fill-rule="evenodd" clip-rule="evenodd" fill="#282828" d="M101.735,261.119
		c-3.354-7.334-5.382-15.206-9.093-22.403c-0.439-0.85-0.181-2.06-0.246-3.104c3.144,1.025,3.18,4.061,3.934,6.471
		c0.637,2.037,1.008,4.009,3.022,5.238c0.646,0.394,1.302,1.198,1.446,1.916C101.582,253.151,102.046,257.109,101.735,261.119z"/>
	<path opacity="0.9" fill-rule="evenodd" clip-rule="evenodd" fill="#282828" d="M12.276,266.216
		c0.482,0.671,0.965,1.343,1.448,2.014c-0.228,1.072,0.622,2.957-0.705,3.057c-1.433,0.108-3.197-0.743-4.377-1.712
		c-1.155-0.945,0.751-1.729,0.855-2.593c0.381-3.182-0.896-6.073-1.932-9.009c-0.545-1.546-2.488-3.391,0.482-4.626
		C10.232,257.382,11.327,261.774,12.276,266.216z"/>
	<path opacity="0.4" fill-rule="evenodd" clip-rule="evenodd" fill="#282828" d="M48.429,266.182
		c-5.669-0.407-11.38-0.215-17.011-1.183c0.526-1.324,1.742-1.526,2.897-1.605c5.887-0.399,11.731,0.251,17.572,0.865
		c0.26,0.027,0.479,0.46,0.718,0.702C51.439,266.143,49.498,264.669,48.429,266.182z"/>
	<path fill-rule="evenodd" clip-rule="evenodd" fill="#2F2F2F" d="M6.092,247.632c-0.516-0.267-1.232-0.399-1.516-0.823
		c-2.282-3.411-3.578-7.431-6.454-10.481c2.48-0.815,3.85,0.794,4.747,2.568C4.268,241.663,5.512,244.539,6.092,247.632z"/>
	<path opacity="0.9" fill-rule="evenodd" clip-rule="evenodd" fill="#292929" d="M87.462,234.893
		c-2.003,3.605-5.343,6.073-7.854,9.248c-0.033-0.65-0.164-1.244-0.889-1.479c1.357-3.524,3.475-6.361,7.093-7.84
		C86.361,234.846,86.912,234.869,87.462,234.893z"/>
	<path opacity="0.9" fill-rule="evenodd" clip-rule="evenodd" fill="#292929" d="M-5.373,237.193
		c1.196,1.779,0.567,3.153-0.784,4.583c-1.33,1.408-2.415,3.047-3.737,4.751c-0.416-0.897-0.753-1.626-1.09-2.355
		C-9.861,241.245-7.938,238.962-5.373,237.193z"/>
	<path opacity="0.4" fill-rule="evenodd" clip-rule="evenodd" fill="#282828" d="M59.057,268.273
		c-0.431-0.119-0.861-0.236-1.291-0.355c-0.652-1.771-3.244-1.026-3.797-2.926c3.376,0.151,6.773,0.106,10.053,1.127
		c-0.703,0.663-1.408,1.325-2.113,1.988C60.958,268.163,60.008,268.219,59.057,268.273z"/>
	<path opacity="0.9" fill-rule="evenodd" clip-rule="evenodd" fill="#222222" d="M-43.557,353.985
		c1.042,0.134,1.059-1.046,2.007-1.553c0,2.363-0.082,4.552,0.024,6.73c0.095,1.959-1.12,1.246-2.069,1.162
		C-43.734,358.211-43.978,356.096-43.557,353.985z"/>
	<path opacity="0.5" fill-rule="evenodd" clip-rule="evenodd" fill="#282828" d="M53.969,264.992
		c0.553,1.899,3.145,1.155,3.797,2.926c-3.193-0.143-6.297-0.772-9.337-1.736c1.069-1.513,3.011-0.039,4.176-1.221
		C53.059,264.972,53.514,264.982,53.969,264.992z"/>
	<path opacity="0.4" fill-rule="evenodd" clip-rule="evenodd" fill="#282828" d="M87.462,234.893c-0.55-0.023-1.101-0.047-1.65-0.07
		c0.433-0.97-0.458-2.579,1.2-2.921c1.76-0.364,2.836,0.639,3.442,2.223C89.457,234.38,88.459,234.636,87.462,234.893z"/>
	<path opacity="0.9" fill-rule="evenodd" clip-rule="evenodd" fill="#2F2F2F" d="M-41.417,339.807
		c0.582,0.696,1.97-2.309,1.917,0.275c-0.054,2.576-0.296,5.247-1.703,8.059c-0.833-2.589,1.68-4.925-0.418-6.958
		C-41.553,340.723-41.484,340.265-41.417,339.807z"/>
	<path opacity="0.5" fill-rule="evenodd" clip-rule="evenodd" fill="#282828" d="M61.908,268.107
		c0.705-0.663,1.41-1.325,2.113-1.988c0.486,0.013,0.971,0.026,1.455,0.04c-0.082,0.873-0.164,1.746-0.246,2.621
		c-0.184,0.044-0.346,0.133-0.483,0.266C63.775,268.81,62.582,269.248,61.908,268.107z"/>
	<path opacity="0.4" fill-rule="evenodd" clip-rule="evenodd" fill="#282828" d="M78.719,242.662
		c0.725,0.234,0.855,0.828,0.889,1.479l0.012-0.014c-0.64,0.306-1.279,0.611-1.919,0.917c-0.11-0.104-0.221-0.207-0.331-0.312
		C77.542,243.862,78.028,243.195,78.719,242.662z"/>
	<path opacity="0.5" fill-rule="evenodd" clip-rule="evenodd" fill="#282828" d="M117.166,329.871
		c-1.027-0.907-0.635-2.054-0.529-3.152C117.613,327.635,117.525,328.731,117.166,329.871z"/>
	<path opacity="0.5" fill-rule="evenodd" clip-rule="evenodd" fill="#282828" d="M117.881,334.834
		c-0.912-0.762-0.729-1.672-0.35-2.608C118.068,333.039,118.289,333.895,117.881,334.834z"/>
	<path opacity="0.5" fill-rule="evenodd" clip-rule="evenodd" fill="#282828" d="M118.6,338.379
		c-0.881-0.738-0.748-1.645-0.424-2.581C119.004,336.545,118.924,337.441,118.6,338.379z"/>
	<path opacity="0.8" fill-rule="evenodd" clip-rule="evenodd" fill="#282828" d="M20.092,265.386
		c-0.068,0.524-0.067,1.191-0.801,1.104c-0.245-0.029-0.421-0.627-0.629-0.965C19.139,265.479,19.616,265.433,20.092,265.386z"/>
	<path fill-rule="evenodd" clip-rule="evenodd" fill="#FFFFFF" d="M56.803,302.085c0.862-5.431,5.125-7.563,9.438-9.514
		c4.38-1.981,8.893-1.695,13.374-0.195c1.005,0.865,2.233,1.176,3.495,1.403c0,0,0.01,0.008,0.01,0.006
		c2.613,2.199,3.993,5.39,6.299,7.835c1.85,5.01,3.482,10.203,1.424,15.391c-3.406,8.584-8.538,11.462-17.951,10.613
		c-9.877-0.889-16.451-6.091-16.561-17.885C56.309,307.188,56.636,304.637,56.803,302.085z M73.135,322.073
		c7.658,0.033,12.973-4.398,13.021-10.857c0.062-8.063-5.125-14.255-11.802-14.624c-5.46-0.302-13.682,5.324-13.327,11.819
		C61.456,316.262,66.137,322.041,73.135,322.073z"/>
	<path fill-rule="evenodd" clip-rule="evenodd" fill="#FFFFFF" d="M-4.64,293.132c0.996-0.896,2.254-1.104,3.503-1.34
		c3.894,1.38,8.085-0.06,11.984,1.269l0.004,0.005c2.981,3.373,5.351,7.389,9.743,9.281c0.189,0.34,0.377,0.681,0.565,1.022
		c0.093,2.926,0.291,5.853,0.261,8.777c-0.077,7.462-8.87,15.987-16.362,16.283c-6.415,0.253-12.318-0.848-17.396-5.024
		c-1.645-3.368-3.484-6.643-3.792-10.521c-0.587-7.396,3.526-12.585,8.059-17.609C-6.641,295.021-5.069,294.99-4.64,293.132z
		 M7.391,298.987c-3.355-2.476-5.424-2.438-7.887,0.142c-5.376,2.712-10.171,5.833-9.182,13.031
		c-1.897,5.554,0.724,9.851,6.455,10.578c5.388,1.455,10.353,0.673,14.811-2.798c1.38,0.189,2.086-0.663,2.775-1.679
		c3.086-4.561,2.239-11.476-1.944-15.54C11.16,300.915,9.501,299.646,7.391,298.987z"/>
	<path opacity="0.08" fill-rule="evenodd" clip-rule="evenodd" fill="#282828" d="M56.803,302.085
		c-0.167,2.552-0.494,5.104-0.473,7.654c0.109,11.794,6.684,16.996,16.561,17.885c9.413,0.849,14.545-2.029,17.951-10.613
		c2.059-5.188,0.426-10.381-1.423-15.391c0.563-0.066,1.126-0.133,1.689-0.198c5.118,7.666,2.667,18.91-4.952,25.066
		c-6.436,5.202-13.641,4.806-20.392,2.438c-6.887-2.415-9.285-9.246-10.733-15.94c-0.513-2.368-0.121-4.942-0.068-7.42
		C54.992,304.135,55.165,302.702,56.803,302.085z"/>
	<path opacity="0.1" fill-rule="evenodd" clip-rule="evenodd" fill="#282828" d="M-12.338,323.405
		c5.078,4.177,10.981,5.277,17.396,5.024c7.492-0.296,16.285-8.821,16.362-16.283c0.03-2.925-0.167-5.852-0.261-8.777
		c4.069,11.15,1.839,21.109-9.013,25.966c-5.786,2.589-12.089,2.817-18.176,0.531C-9.042,328.735-11.443,326.737-12.338,323.405z"/>
	<path opacity="0.07" fill-rule="evenodd" clip-rule="evenodd" fill="#282828" d="M91.108,301.422
		c-0.563,0.065-1.126,0.132-1.689,0.198c-2.307-2.445-3.687-5.636-6.3-7.835C88.532,294.83,90.315,296.535,91.108,301.422z"/>
	<path opacity="0.1" fill-rule="evenodd" clip-rule="evenodd" fill="#282828" d="M20.594,302.347
		c-4.392-1.893-6.761-5.908-9.743-9.281C16.06,294.1,18.449,298.095,20.594,302.347z"/>
	<path opacity="0.1" fill-rule="evenodd" clip-rule="evenodd" fill="#282828" d="M10.847,293.061
		c-3.899-1.328-8.09,0.111-11.984-1.269C2.985,291.004,7.18,289.535,10.847,293.061z"/>
	<path opacity="0.9" fill-rule="evenodd" clip-rule="evenodd" fill="#292929" d="M-35.105,321.318
		c-0.923,3.643-1.846,7.285-2.769,10.927C-38.028,328.337-37.721,324.542-35.105,321.318z"/>
	<path opacity="0.9" fill-rule="evenodd" clip-rule="evenodd" fill="#282828" d="M64.747,269.046c0.138-0.133,0.3-0.222,0.483-0.266
		c0.539-0.188,1.079-0.375,1.619-0.563l0.02,0.017c-0.077,4.207-0.077,4.207-4.965,2.816c-0.003-0.229-0.003-0.458,0-0.687
		C63.057,270.366,64.16,270.266,64.747,269.046z"/>
	<path opacity="0.9" fill-rule="evenodd" clip-rule="evenodd" fill="#292929" d="M77.7,245.044c0.64-0.306,1.279-0.611,1.919-0.917
		c0.033,2.216-1.254,3.679-2.835,4.974l-0.011-0.011C77.082,247.741,77.391,246.394,77.7,245.044z"/>
	<path opacity="0.07" fill-rule="evenodd" clip-rule="evenodd" fill="#282828" d="M83.109,293.779
		c-1.262-0.228-2.49-0.538-3.495-1.403C81.215,291.762,82.469,292.007,83.109,293.779z"/>
	<path opacity="0.1" fill-rule="evenodd" clip-rule="evenodd" fill="#282828" d="M-4.64,293.132c-0.429,1.858-2,1.89-3.432,2.144
		C-7.53,293.597-6.167,293.233-4.64,293.132z"/>
	<path opacity="0.8" fill-rule="evenodd" clip-rule="evenodd" fill="#282828" d="M69.397,264.762
		c-0.14-1.615,0.435-2.39,1.218-3.177C71.308,262.897,70.451,263.591,69.397,264.762z"/>
	<path opacity="0.9" fill-rule="evenodd" clip-rule="evenodd" fill="#292929" d="M104.719,278.485
		c1.463,0.869,0.979,2.06,0.895,3.145C105.052,280.713,104.199,279.872,104.719,278.485z"/>
	<path opacity="0.9" fill-rule="evenodd" clip-rule="evenodd" fill="#292929" d="M103.363,274.812
		c-0.111-0.199-0.285-0.378-0.287-0.557c-0.002-0.18,0.17-0.361,0.266-0.541c0.102,0.176,0.279,0.351,0.285,0.528
		C103.633,274.423,103.467,274.606,103.363,274.812z"/>
	<path opacity="0.07" fill-rule="evenodd" clip-rule="evenodd" fill="#282828" d="M71.548,259.559
		c0.028,0.086,0.057,0.172,0.085,0.258c-0.111,0.025-0.223,0.051-0.334,0.077c0.015-0.093,0.009-0.196,0.052-0.272
		C71.375,259.577,71.479,259.578,71.548,259.559z"/>
	<path opacity="0.9" fill-rule="evenodd" clip-rule="evenodd" fill="#292929" d="M75.855,251.373
		c-0.073,0.016-0.181,0.069-0.214,0.04c-0.058-0.053-0.071-0.155-0.103-0.236c0.122-0.025,0.244-0.049,0.365-0.073
		C75.889,251.193,75.873,251.283,75.855,251.373z"/>
	<path fill-rule="evenodd" clip-rule="evenodd" fill="#282828" d="M66.85,268.217c0.095-0.309,0.189-0.617,0.283-0.926
		c0.089,0.063,0.178,0.125,0.267,0.187c-0.177,0.252-0.354,0.504-0.531,0.756C66.869,268.233,66.85,268.217,66.85,268.217z"/>
	<path opacity="0.9" fill-rule="evenodd" clip-rule="evenodd" fill="#292929" d="M103.961,276.524
		c0.075,0.009,0.188-0.011,0.218,0.029c0.05,0.068,0.089,0.196,0.057,0.263c-0.134,0.278-0.28,0.265-0.362-0.035
		C103.854,276.709,103.929,276.61,103.961,276.524z"/>
	<path opacity="0.9" fill-rule="evenodd" clip-rule="evenodd" fill="#292929" d="M-34.684,319.407
		c-0.073,0.016-0.18,0.068-0.212,0.039c-0.058-0.051-0.07-0.153-0.101-0.233c0.121-0.024,0.242-0.048,0.363-0.071
		C-34.651,319.23-34.668,319.319-34.684,319.407z"/>
	<path opacity="0.9" fill-rule="evenodd" clip-rule="evenodd" fill="#292929" d="M76.784,249.101c-0.101,0.096-0.2,0.192-0.3,0.288
		c0.015-0.063,0.01-0.149,0.05-0.185c0.063-0.055,0.157-0.077,0.239-0.114L76.784,249.101z"/>
	<path fill-rule="evenodd" clip-rule="evenodd" fill="#2F2F2F" d="M61.904,270.363c-0.003,0.229-0.003,0.457,0,0.687
		C61.398,270.82,61.398,270.592,61.904,270.363z"/>
	<path opacity="0.8" fill-rule="evenodd" clip-rule="evenodd" fill="#282828" d="M-17.738,262.769
		c-0.086-0.032-0.245-0.063-0.245-0.097c-0.003-0.102,0.057-0.205,0.092-0.308c0.086,0.032,0.245,0.063,0.245,0.097
		C-17.645,262.563-17.703,262.666-17.738,262.769z"/>
	<path fill-rule="evenodd" clip-rule="evenodd" fill="#292929" d="M73.135,322.073c-6.998-0.032-11.679-5.812-12.107-13.662
		c-0.354-6.495,7.867-12.121,13.327-11.819c6.677,0.369,11.863,6.562,11.802,14.624C86.107,317.675,80.793,322.106,73.135,322.073z"
		/>
	<path fill-rule="evenodd" clip-rule="evenodd" fill="#282828" d="M11.587,319.94c-4.458,3.471-9.423,4.253-14.811,2.798
		c-2.347-3.407-5.658-6.225-6.455-10.578c-0.989-7.198,3.806-10.319,9.182-13.031c2.629-0.047,5.258-0.095,7.887-0.142
		c2.111,0.659,3.769,1.928,5.028,3.734c-0.449,2.297,0.313,4.333,1.061,6.482C14.809,313.03,12.713,316.44,11.587,319.94z"/>
	<path opacity="0.8" fill-rule="evenodd" clip-rule="evenodd" fill="#282828" d="M11.587,319.94c1.125-3.5,3.222-6.91,1.892-10.736
		c-0.747-2.149-1.51-4.186-1.061-6.482c4.183,4.064,5.03,10.979,1.944,15.54C13.673,319.277,12.967,320.13,11.587,319.94z"/>
	<path opacity="0.08" fill-rule="evenodd" clip-rule="evenodd" fill="#282828" d="M-9.678,312.16
		c0.796,4.354,4.108,7.171,6.455,10.578C-8.954,322.011-11.576,317.714-9.678,312.16z"/>
	<path opacity="0.02" fill-rule="evenodd" clip-rule="evenodd" fill="#BBBBBB" d="M7.391,298.987
		c-2.629,0.047-5.258,0.095-7.887,0.142C1.966,296.549,4.035,296.512,7.391,298.987z"/>
	<g>
		<path opacity="0.8" fill="#282828" d="M430.913,361.861c-19.919,0.121-35.94,0.172-46.874,0.172
			c-10.407,0-20.796,0.54-30.842,1.062c-15.384,0.8-31.294,1.625-46.969,0.444c-27.223-2.051-54.915-3.006-87.151-3.006
			c-19.04,0-38.097,1.991-57.157,1.978c1.449-7.467,2.831-14.95,4.535-22.357c3.41-14.818,4.191-29.711,2.014-44.749
			c-0.32-2.2-0.828-4.407-2.066-6.34c-1.918-2.99-5.688-4.268-8.908-3.028c-4.168,1.607-7.516,6.402-7.451,10.99
			c0.197,14.046-0.803,27.971-3.732,41.738c-1.681,7.9-3.279,15.816-4.896,23.73c-7.679-0.007-15.357-0.012-23.036-0.019
			c-0.79-15.204-2.203-30.354-5.952-45.415c2.287,0.304,1.342,2.85,3.131,2.908c-1.043-9.263-2.486-18.396-5.33-27.363
			c-3.282-10.354-5.699-20.979-8.491-31.487c-3.354-7.334-5.382-15.206-9.093-22.403c-0.439-0.85-0.181-2.06-0.246-3.104
			c-0.646-0.496-1.295-0.992-1.942-1.488c-0.997,0.256-1.995,0.512-2.992,0.769c-2.003,3.605-5.343,6.073-7.854,9.248l0.012-0.014
			c0.033,2.216-1.254,3.679-2.835,4.974c-0.101,0.096-0.2,0.192-0.3,0.288c0.015-0.063,0.01-0.149,0.05-0.185
			c0.063-0.055,0.157-0.077,0.239-0.114c0.309-1.349,0.617-2.696,0.927-4.046c-0.11-0.104-0.221-0.207-0.331-0.312
			c-3.103,4.704-6.031,9.501-8.227,14.716c-0.99,2.355-1.803,4.824-3.666,6.711c-0.082,0.873-0.164,1.746-0.247,2.621
			c0.54-0.188,1.08-0.375,1.62-0.563c0.095-0.309,0.189-0.617,0.283-0.926c0.089,0.063,0.178,0.125,0.267,0.187
			c-0.177,0.252-0.354,0.504-0.531,0.756c-0.076,4.207-0.076,4.207-4.964,2.816c-0.506-0.229-0.506-0.458,0-0.687
			c1.152,0.003,2.256-0.098,2.843-1.317c-0.972-0.236-2.165,0.202-2.839-0.938c-0.95,0.056-1.9,0.111-2.852,0.166
			c0.064,0.878,1.832,2.515-0.971,2.101c-3.576-0.528-7.148-1.122-10.743-1.484c-9.822-0.991-19.583-3.626-29.563-1.037
			c-1.241,0.323-2.724-0.07-4.056,0.377c-0.228,1.072,0.622,2.957-0.705,3.057c-1.433,0.108-3.197-0.743-4.377-1.712
			c-1.155-0.945,0.751-1.729,0.855-2.593c0.381-3.182-0.896-6.073-1.932-9.009c-0.545-1.546-2.488-3.391,0.482-4.626
			c-0.035-2.116-0.901-3.947-1.955-5.715c-0.516-0.267-1.232-0.399-1.516-0.823c-2.282-3.411-3.578-7.431-6.454-10.481
			c-1.277-0.165-2.558-0.342-3.495,0.866c1.196,1.779,0.567,3.153-0.784,4.583c-1.33,1.408-2.415,3.047-3.737,4.751
			c-0.416-0.897-0.753-1.626-1.09-2.355c-0.657,0.449-1.053,1.061-1.165,1.851c1.717,1.099,1.764,2.438,0.893,4.195
			c-3.099,6.257-4.455,12.956-4.794,19.893c-0.055,1.125,0.166,2.83-1.414,2.693c-1.957-0.172-1.326-1.798-0.859-2.995
			c1.083-2.783-0.902-4.992-1.328-7.488c-1.837,1.807-2.457,4.255-3.119,6.567c-3.847,13.451-8.04,26.796-11.434,40.39
			c-2.535,10.151-5.677,20.145-7.213,30.529c0.581,0.696,1.969-2.309,1.916,0.275c-0.054,2.576-0.296,5.247-1.703,8.059
			c-0.833-2.589,1.68-4.925-0.418-6.958c-0.735,4.254-2.367,8.373-1.936,12.803c1.042,0.134,1.059-1.046,2.007-1.553
			c0,2.363-0.082,4.552,0.024,6.73c0.095,1.959-1.12,1.246-2.069,1.162c-0.193,0.701-0.261,1.404-0.275,2.107
			c-19.936,0.019-39.816,0.049-59.537,0.101c-12.657,0.033-25.383,0.399-37.689,0.754c-12.72,0.365-25.873,0.744-38.802,0.746
			h-0.072c-18.394,0-35.918-1.142-52.864-2.245c-16.68-1.087-33.929-2.21-52.064-2.255c-15.249-0.051-30.629,1.117-45.512,2.234
			c-9.982,0.749-17.196,1.507-27.499,1.929c0.39,1.292-2.706,4.767-3.289,6.014c10.518-0.419,20.922-1.19,31.087-1.954
			c14.807-1.111,30.132-2.292,45.203-2.223c18.01,0.044,35.195,1.164,51.814,2.246c17.011,1.108,34.598,2.254,53.124,2.254h0.073
			c12.986-0.002,26.168-0.381,38.916-0.748c3.853-0.111,7.754-0.219,11.673-0.321c-1.625,0.47-2.679,0.803-2.679,0.803
			c5.862,0,11.846-0.18,17.633-0.353c5.832-0.176,11.862-0.356,17.815-0.356c1.447,0,2.905-0.028,4.365-0.058
			c2.487-0.049,5.044-0.09,7.533,0.013c10.146-0.16,20.285-0.178,30.408,0.057c2.591-0.225,5.176-0.313,7.841-0.096
			c1.12,0.091,2.21,0.267,3.312,0.461c4.425,0.191,8.845,0.445,13.262,0.76c0.274-0.021,0.557-2.042,0.829-2.063
			c2.297-0.186,4.468,1.639,6.764,1.636l0.04-2c2.775,0,5.425,2.329,8.229,2.678c1.311,0.163,2.666,0.332,4.039,0.464
			c4.934,0.477,10.016,0.4,14.93,0.329c1.798-0.027,3.592-0.054,5.375-0.054h29.455c0.711,0,1.421,0.006,2.13,0.012
			c3.824,0.03,7.775,0.063,11.589-0.848c3.703-0.885,7.475-0.864,11.465-0.838c1.988,0.011,4.042,0.025,6.111-0.081
			c0.971-0.051,1.949-0.109,2.93-0.169c3.896-0.234,7.924-0.478,11.766-0.13c2.121,0.191,4.125,0.713,6.248,1.265
			c1.77,0.461,3.6,0.937,5.541,1.221c3.043,0.444,6.188,0.578,9.342,0.578c2.396,0,4.797-0.077,7.164-0.153
			c2.27-0.072,13.455-0.617,16.541-1.071c3.682-0.541,7.16-1.054,11.057-0.85c3.455,0.18,6.967,0.536,10.363,0.881
			c3.479,0.354,7.076,0.72,10.582,0.891c5.336,0.261,10.383-0.382,15.262-1.004c2.273-0.29,4.627-0.589,6.967-0.79
			c1.736-0.15,3.482-0.348,5.172-0.54c5.744-0.653,11.172-1.271,16.682-0.171c2.75,0.548,5.199,0.986,7.647,1.228
			c0.246-0.064,0.499-0.12,0.768-0.153c5.743-0.708,11.494-1.197,17.248-1.551c-0.195-0.105-0.408-0.213-0.661-0.323
			c1.796,0.015,3.576,0.033,5.346,0.055c30.639-1.449,61.402,1.152,92.067,1.152H433.14
			C432.595,368.581,430.522,363.142,430.913,361.861z M-37.874,332.245c-0.154-3.908,0.153-7.703,2.769-10.927
			C-36.028,324.961-36.951,328.604-37.874,332.245z M-34.684,319.407c-0.073,0.016-0.18,0.068-0.212,0.039
			c-0.058-0.051-0.07-0.153-0.101-0.233c0.121-0.024,0.242-0.048,0.363-0.071C-34.651,319.23-34.668,319.319-34.684,319.407z
			 M12.146,329.335c-5.786,2.589-12.089,2.817-18.176,0.531c-3.012-1.131-5.413-3.129-6.308-6.461
			c-1.645-3.368-3.484-6.643-3.792-10.521c-0.587-7.396,3.526-12.585,8.059-17.609c0.542-1.679,1.904-2.042,3.432-2.144
			c0.996-0.896,2.254-1.104,3.503-1.34c4.123-0.788,8.317-2.257,11.984,1.269l0.004,0.005c5.209,1.034,7.598,5.029,9.743,9.281
			c0.189,0.34,0.377,0.681,0.565,1.021C25.228,314.52,22.998,324.479,12.146,329.335z M75.904,251.104
			c-0.016,0.09-0.031,0.18-0.049,0.27c-0.073,0.016-0.181,0.069-0.214,0.04c-0.058-0.053-0.071-0.155-0.103-0.236
			C75.661,251.151,75.783,251.128,75.904,251.104z M71.351,259.621c0.024-0.044,0.129-0.043,0.197-0.063l0.085,0.258
			c-0.111,0.025-0.223,0.051-0.334,0.077C71.313,259.801,71.308,259.697,71.351,259.621z M70.615,261.585
			c0.692,1.313-0.164,2.006-1.218,3.177C69.258,263.146,69.832,262.372,70.615,261.585z M86.156,326.488
			c-6.436,5.202-13.641,4.806-20.392,2.438c-6.887-2.415-9.285-9.246-10.733-15.94c-0.513-2.368-0.121-4.942-0.068-7.42
			c0.029-1.432,0.202-2.864,1.84-3.481c0.862-5.431,5.125-7.563,9.438-9.514c4.38-1.981,8.893-1.695,13.374-0.195
			c1.601-0.614,2.854-0.369,3.495,1.403l0.01,0.008c5.413,1.043,7.196,2.748,7.989,7.635
			C96.227,309.088,93.775,320.332,86.156,326.488z M103.363,274.812c-0.111-0.199-0.285-0.378-0.287-0.557
			c-0.002-0.18,0.17-0.361,0.266-0.541c0.102,0.176,0.279,0.351,0.285,0.528C103.633,274.423,103.467,274.606,103.363,274.812z
			 M104.235,276.816c-0.134,0.278-0.28,0.265-0.362-0.035c-0.02-0.072,0.056-0.171,0.088-0.257c0.075,0.009,0.188-0.011,0.218,0.029
			C104.229,276.622,104.268,276.75,104.235,276.816z M105.613,281.63c-0.562-0.917-1.414-1.758-0.895-3.145
			C106.182,279.354,105.697,280.545,105.613,281.63z"/>
	</g>
</g>
</svg>
